<svg xmlns="http://www.w3.org/2000/svg" viewBox="0 0 120 140" fill="currentColor">
  <!-- Two heads -->
  <circle cx="42" cy="18" r="12"/>
  <circle cx="78" cy="18" r="12"/>
  <!-- Body/arms forming heart shape holding open book -->
  <path d="M60 38 C40 38 28 48 24 62 C20 76 22 88 30 98 L42 108 C48 112 54 114 60 116 C66 114 72 112 78 108 L90 98 C98 88 100 76 96 62 C92 48 80 38 60 38Z"/>
  <!-- Book opening (white cutout) -->
  <path d="M60 58 C52 58 44 62 40 68 L40 100 C44 96 52 94 60 94 C68 94 76 96 80 100 L80 68 C76 62 68 58 60 58Z" fill="white"/>
  <!-- Book spine -->
  <line x1="60" y1="58" x2="60" y2="94" stroke="white" stroke-width="2"/>
  <!-- Left page lines -->
  <line x1="44" y1="72" x2="56" y2="72" stroke="currentColor" stroke-width="2" stroke-linecap="round"/>
  <line x1="44" y1="78" x2="56" y2="78" stroke="currentColor" stroke-width="2" stroke-linecap="round"/>
  <line x1="44" y1="84" x2="54" y2="84" stroke="currentColor" stroke-width="2" stroke-linecap="round"/>
  <!-- Right page lines -->
  <line x1="64" y1="72" x2="76" y2="72" stroke="currentColor" stroke-width="2" stroke-linecap="round"/>
  <line x1="64" y1="78" x2="76" y2="78" stroke="currentColor" stroke-width="2" stroke-linecap="round"/>
  <line x1="66" y1="84" x2="76" y2="84" stroke="currentColor" stroke-width="2" stroke-linecap="round"/>
  <!-- Hands (small bumps on sides of book) -->
  <path d="M38 74 C36 74 34 76 34 78 C34 80 34 82 34 84 C34 86 36 88 38 88" fill="currentColor"/>
  <path d="M82 74 C84 74 86 76 86 78 C86 80 86 82 86 84 C86 86 84 88 82 88" fill="currentColor"/>
</svg>
